<?xml version="1.0" encoding="utf-8"?>
<!-- Generator: Adobe Illustrator 16.0.0, SVG Export Plug-In . SVG Version: 6.00 Build 0)  -->
<!DOCTYPE svg PUBLIC "-//W3C//DTD SVG 1.1//EN" "http://www.w3.org/Graphics/SVG/1.1/DTD/svg11.dtd">
<svg version="1.1" id="Layer_1" xmlns="http://www.w3.org/2000/svg" xmlns:xlink="http://www.w3.org/1999/xlink" x="0px" y="0px"
	 width="100px" height="100px" viewBox="0 0 100 100" enable-background="new 0 0 100 100" xml:space="preserve">
<path opacity="0.5" fill="#FFFFFF" d="M73.136,38.835C73.136,26.278,61.568,20,50,20s-23.136,6.278-23.136,18.835
	c0,0.787,0.007,1.566,0.029,2.339l-0.029,0.002c-1.299,0.216-1.828,4.34-1.176,9.216c0.649,4.876,2.231,8.647,3.529,8.435
	c0.074-0.015,0.142-0.041,0.213-0.078C33.276,72.114,41.047,80,50.002,80s16.724-7.886,20.567-21.252
	c0.071,0.037,0.14,0.063,0.215,0.078c1.3,0.213,2.878-3.559,3.527-8.435c0.652-4.876,0.123-9-1.172-9.216l-0.033-0.002
	C73.129,40.405,73.136,39.622,73.136,38.835z"/>
<path fill="#04A0DC" d="M73.136,38.835C73.136,26.278,61.568,20,50,20s-23.136,6.278-23.136,18.835c0,0.787,0.007,1.566,0.029,2.339
	l-0.029,0.002c-1.299,0.216-1.828,4.34-1.176,9.216c0.649,4.876,2.231,8.647,3.529,8.435c0.074-0.015,0.142-0.041,0.213-0.078
	C33.276,72.114,41.047,80,50.002,80s16.724-7.886,20.567-21.252c0.071,0.037,0.14,0.063,0.215,0.078
	c1.3,0.213,2.878-3.559,3.527-8.435c0.652-4.876,0.123-9-1.172-9.216l-0.033-0.002C73.129,40.405,73.136,39.622,73.136,38.835z
	 M71.176,38.835c0,0.787-0.008,1.566-0.032,2.339l0.032,0.002c1.3,0.216,1.828,4.34,1.175,9.216c-0.65,4.876-2.23,8.647-3.53,8.435
	c-0.071-0.015-0.146-0.041-0.213-0.078c-3.847,13.366-9.65,19.29-18.607,19.29s-14.765-5.924-18.611-19.29
	c-0.067,0.037-0.138,0.063-0.213,0.078c-1.296,0.213-2.876-3.559-3.526-8.435c-0.651-4.876-0.121-9,1.177-9.216l0.026-0.002
	c-0.019-0.769-0.026-1.552-0.026-2.339c0-12.557,9.605-16.877,21.176-16.877C61.568,21.958,71.176,26.278,71.176,38.835z M57,42.75
	 M85.176,41.176"/>
</svg>
